# xmcd
#
# Track frame offsets:
#	182
#	13615
#	28722
#	44420
#	59037
#	71297
#	88140
#	103537
#	119160
#	136055
#
# Disc length: 2044 seconds
#
# Revision: 3
# Processed by: cddbd v1.5.1PL0 Copyright (c) Steve Scherf et al.
# Submitted via: AudioConverter v5.0 Copyright (c) AC Productions Ltd
#
DISCID=8b07fa0a
DTITLE=Terry McBride and The Ride - Terry McBride and The Ride
DYEAR=1994
DGENRE=Country
TTITLE0=Teardrops
TTITLE1=I Can't Dance
TTITLE2=Been There
TTITLE3=I'd Be Lyin'
TTITLE4=Somebody Will
TTITLE5=High Hopes and Empty Pockets
TTITLE6=Before I Fall In Love
TTITLE7=Nothin' Nobody Can Say
TTITLE8=He's Living My Dreams
TTITLE9=I'll See You Again Someday
EXTD=
EXTT0=
EXTT1=
EXTT2=
EXTT3=
EXTT4=
EXTT5=
EXTT6=
EXTT7=
EXTT8=
EXTT9=
PLAYORDER=
